<svg width="25" height="25" viewBox="0 0 25 25" fill="none" xmlns="http://www.w3.org/2000/svg">
<path d="M17.754 15.3559C17.5301 15.1554 17.1861 15.1749 16.9866 15.3983C15.8529 16.6651 14.2182 17.3912 12.5002 17.3912C10.7828 17.3912 9.1475 16.6651 8.0138 15.3983C7.81326 15.1749 7.47032 15.1554 7.24641 15.3559C7.0225 15.5559 7.00402 15.8994 7.20402 16.1233C8.54369 17.62 10.4741 18.4782 12.5002 18.4782C14.5268 18.4782 16.4573 17.6195 17.7964 16.1233C17.9964 15.8994 17.9774 15.5559 17.754 15.3559Z" fill="black"/>
<path d="M12.5 0C5.60761 0 0 5.60761 0 12.5C0 19.3924 5.60761 25 12.5 25C19.3924 25 25 19.3924 25 12.5C25 5.60761 19.3924 0 12.5 0ZM12.5 23.913C6.20652 23.913 1.08696 18.7935 1.08696 12.5C1.08696 6.20652 6.20652 1.08696 12.5 1.08696C18.7935 1.08696 23.913 6.20652 23.913 12.5C23.913 18.7935 18.7935 23.913 12.5 23.913Z" fill="black"/>
<path d="M16.8483 8.69568C15.3499 8.69568 14.1309 9.9147 14.1309 11.4131C14.1309 11.7131 14.3743 11.9565 14.6743 11.9565C14.9743 11.9565 15.2178 11.7131 15.2178 11.4131C15.2178 10.5142 15.9493 9.78263 16.8483 9.78263C17.7472 9.78263 18.4787 10.5142 18.4787 11.4131C18.4787 11.7131 18.7222 11.9565 19.0222 11.9565C19.3222 11.9565 19.5656 11.7131 19.5656 11.4131C19.5656 9.9147 18.3466 8.69568 16.8483 8.69568Z" fill="black"/>
<path d="M9.7824 11.4131C9.7824 11.7131 10.0259 11.9565 10.3259 11.9565C10.6259 11.9565 10.8694 11.7131 10.8694 11.4131C10.8694 9.9147 9.65034 8.69568 8.15196 8.69568C6.65359 8.69568 5.43457 9.9147 5.43457 11.4131C5.43457 11.7131 5.67805 11.9565 5.97805 11.9565C6.27805 11.9565 6.52153 11.7131 6.52153 11.4131C6.52153 10.5142 7.25305 9.78263 8.15196 9.78263C9.05088 9.78263 9.7824 10.5142 9.7824 11.4131Z" fill="black"/>
</svg>
